<?xml version="1.0" encoding="utf-8"?>
<!-- Generator: Adobe Illustrator 19.1.0, SVG Export Plug-In . SVG Version: 6.00 Build 0)  -->
<svg version="1.1" xmlns="http://www.w3.org/2000/svg" xmlns:xlink="http://www.w3.org/1999/xlink" x="0px" y="0px"
	 viewBox="0 0 678 176" style="enable-background:new 0 0 678 176;" xml:space="preserve">
<style type="text/css">
	.st0{fill:#0EBBD7;}
	.st1{fill:#65FFED;}
	.st2{fill:#153E50;}
</style>
<g id="Layer_2_1_">
	<g id="Layer_2_2_">
		<g>
			<path class="st0" d="M120.9,128.9c-0.1,0-0.1,0-0.2,0l0,0c-34.8,0-63.1-28.3-63.1-63.2c0-15.2,5.3-29.5,15-40.9
				c-0.2-0.9-0.3-1.8-0.3-2.7c0-7.3,6-13.3,13.3-13.3h70.1c7.3,0,13.3,6,13.3,13.3c0,0.9-0.1,1.8-0.3,2.7c9.7,11.4,15,25.7,15,40.9
				c-0.1,16.9-6.6,32.8-18.5,44.7C153.4,122.4,137.7,128.9,120.9,128.9z M90.1,24.8c0.1,0.4,0.1,0.8,0.1,1.2c0.1,2.3-0.8,4.4-2.4,6
				c-9.2,8.9-14.2,20.9-14.2,33.7c0,26,21.1,47.2,47.1,47.2c0.1,0,0.1,0,0.2,0c12.5,0,24.2-4.9,33.1-13.7
				c8.9-8.9,13.8-20.8,13.8-33.4c0-12.8-5-24.8-14.2-33.7c-1.6-1.6-2.5-3.8-2.4-6c0-0.4,0.1-0.8,0.1-1.2H90.1z M529,75.9
				c-8,0-14.4-6.5-14.4-14.4s6.5-14.4,14.4-14.4c8,0,14.4,6.5,14.4,14.4S537,75.9,529,75.9z M529,60c-0.9,0-1.6,0.7-1.6,1.6
				c0,0.8,0.7,1.6,1.6,1.6c0.8,0,1.6-0.7,1.6-1.6C530.6,60.7,529.9,60,529,60z"/>
		</g>
	</g>
	<g id="Layer_1_2_">
		<g>
			<g>
				<g>
					<path class="st0" d="M147.8,172.6h-55c-7.3,0-13.3-5.9-13.3-13.2c0-6.1,4.2-11.2,9.8-12.8c0.7-0.9,1.4-1.8,2.1-2.6
						c-11.2-4.1-21.4-10.6-30-19.3C29,92.3,28.9,39.6,60.9,7c0.3-0.4,0.6-0.7,1-1c2.5-2.3,5.7-3.6,9.1-3.6c3.5,0,6.9,1.4,9.4,3.9
						c5.2,5.2,5.2,13.6,0,18.8l-0.3,0.3C69.5,36.2,63.6,50.5,63.6,65.7s5.9,29.5,16.7,40.3c10.7,10.7,25,16.7,40.2,16.7
						c15,0,29.1-5.8,39.8-16.3c0.2-0.2,0.4-0.5,0.6-0.7c2.5-2.6,6.1-4.1,9.7-4c3.5,0.1,6.9,1.6,9.2,4.2c2.4,2.5,3.7,5.8,3.7,9.2
						c0,3.5-1.4,6.9-3.9,9.4l-0.1,0.1c0,0-0.1,0.1-0.1,0.1c0,0,0,0-0.1,0.1c-8.7,8.7-18.9,15.2-30,19.3c0.7,0.8,1.4,1.6,2,2.5
						c5.7,1.5,9.9,6.7,9.9,12.8C161.1,166.7,155.2,172.6,147.8,172.6z M101.8,156.6h36.9c-2.8-3.9-6.8-6.9-11.4-8.3
						c-3.6-1.1-5.9-4.6-5.5-8.4c0-0.4,0.1-0.9,0.2-1.3c-1.2,0-2.3,0-3.5,0c0.1,0.4,0.2,0.8,0.2,1.2c0.3,3.7-2,7.2-5.5,8.4
						C108.6,149.6,104.6,152.6,101.8,156.6z M552.8,143.7c-5.2,0-9.4-0.8-13-2.3c-3.7-1.7-6.6-4.1-8.7-7c0,0-0.1-0.1-0.1-0.1
						c-0.7,2-1.9,3.8-3.5,5.2c-2.3,2-5.3,3.1-8.4,3.1h-3.9c-5.2,0-7.9-2.7-9.2-4.3c-1.8-2.4-2.6-5.6-2.1-8.9c0-0.1,0-0.1,0-0.2
						l6.3-35.3c-0.9,0.2-1.8,0.3-2.7,0.3h-5.2l-6.7,37.6c-0.5,3-1.9,5.6-4.1,7.6c-2.3,2-5.3,3.1-8.4,3.1h-3.9
						c-5.2,0-7.9-2.7-9.1-4.3c-0.7-1-1.3-2-1.6-3.2c-0.7,1.6-1.8,3.1-3.2,4.3c-2.3,2-5.3,3.1-8.4,3.1h-1.8
						c-10.7,0-15.8-4.5-18.1-8.3c-0.8-1.2-1.4-2.4-1.9-3.7c-0.4,0.6-0.9,1.2-1.4,1.8c-0.1,0.1-0.2,0.2-0.3,0.3
						c-2.9,2.9-6.5,5.4-11.1,7.6c-4.8,2.4-10.3,3.6-16.3,3.6c-4.9,0-9.1-0.8-12.8-2.4c-3.9-1.7-7.1-4.1-9.7-7.2
						c-1.6-1.9-2.8-4-3.8-6.2c-1.7,2.4-3.7,4.5-5.9,6.4c0,0-0.1,0.1-0.1,0.1c-3.2,2.6-6.7,4.6-10.4,5.9c-3.9,1.5-8.1,2.3-12.6,2.3
						h-21.8c-5.2,0-7.9-2.7-9.2-4.3c-0.1-0.1-0.1-0.1-0.1-0.2c-0.4,0.5-0.8,0.9-1.3,1.3c-2.3,2-5.3,3.1-8.4,3.1h-3.9
						c-2.3,0-4.4-0.6-6.2-1.7c-0.6,0.3-1.1,0.5-1.7,0.8c-0.1,0-0.2,0.1-0.3,0.1c-3.6,1.4-7.6,2.1-11.9,2.1c-4.1,0-8-0.8-11.5-2.5
						c0,0-0.1,0-0.1-0.1c-3.6-1.7-6.5-4.2-8.8-7.5c-1.3-1.9-2.4-4.1-3.2-6.4c-1.7,2.2-3.7,4.2-6,6.1c-3.2,2.7-7,5-11.4,6.7
						c-4.2,1.6-8.6,2.5-13.2,2.5h-27.7c-5.2,0-7.9-2.7-9.2-4.3c-1.8-2.4-2.6-5.6-2.1-9c0-0.1,0-0.1,0-0.2l14.6-81.9
						c0.5-3,1.9-5.6,4.1-7.6c2.3-2,5.3-3.1,8.4-3.1h22.4c4.6,0,8.9,0.9,12.8,2.6c4,1.8,7.4,4.3,10.1,7.4c2.7,3.1,4.7,6.9,5.8,11.3
						c1.1,4.2,1.2,8.7,0.4,13.4c-0.7,4-2.1,7.9-4.3,11.5c-0.9,1.6-2,3.2-3.2,4.7c0.7,0.9,1.4,1.8,2,2.8c0.6-1.3,1.2-2.5,1.9-3.8
						c2.2-3.9,5-7.3,8.4-10.1c3.3-2.9,7.1-5.1,11.2-6.7c4.2-1.7,8.8-2.6,13.5-2.6h19.6c3.1,0,5.8,1,7.8,2.8l4-22.5
						c0.5-3,1.9-5.6,4.1-7.6c2.3-2,5.3-3.1,8.4-3.1h3.9c5.2,0,7.9,2.7,9.2,4.3c1.8,2.4,2.6,5.6,2.1,8.9c0,0.1,0,0.1,0,0.2l-3,17h4.8
						c4.2,0,8.2,0.8,11.9,2.4c3.7,1.6,6.9,3.9,9.3,6.9c1.3,1.6,2.4,3.3,3.3,5.2c1.7-2.6,3.7-4.9,6-7c3.3-2.9,6.8-5.1,10.6-6.5
						c4.1-1.6,8.5-2.4,13-2.4c4.8,0,9.1,0.9,12.8,2.5c0,0,0.1,0,0.1,0.1c3.9,1.8,7.1,4.3,9.5,7.3c0.9,1.1,1.7,2.2,2.4,3.5l5.6-31.7
						c0.5-3,1.9-5.6,4.1-7.6c2.3-2,5.3-3.1,8.4-3.1h3.9c3.3,0,6.3,1.2,8.4,3.3c0.3,0.3,0.5,0.6,0.7,0.9c1.8,2.5,2.6,5.6,2.1,8.9
						c0,0.1,0,0.1,0,0.2l-3.4,19.1c2.1-1.4,4.5-2.1,7.1-2.1h1.3l0.2-1.3c0.7-4,2-7.8,3.8-11.2c1.9-3.5,4.3-6.7,7.2-9.3
						c0,0,0.1-0.1,0.1-0.1c2.9-2.5,6.1-4.5,9.7-6c3.7-1.6,7.9-2.4,12.3-2.4h2.5c5.2,0,7.9,2.7,9.2,4.3c1.8,2.4,2.6,5.6,2.1,8.9
						l-0.6,3.3c-0.5,3-1.9,5.7-4.1,7.7c-2.3,2-5.3,3.1-8.4,3.1h-2c-1.5,0-2,0.4-2.3,0.6c-0.5,0.6-1,1.4-1.3,2.5h2.1
						c4,0,6.5,1.6,8.1,3.1c2.2-1.9,5.2-3,8.3-3h3.9c3.5,0,6.6,1.4,8.8,3.8c0.1,0.2,0.3,0.3,0.4,0.5c1.6,2.1,2.3,4.7,2.2,7.6
						c1.6-2.4,3.5-4.5,5.7-6.3c2.7-2.2,5.6-3.9,8.9-5c3.4-1.3,7-1.9,10.9-1.9c4.7,0,8.9,1,12.7,2.9c0,0,0,0,0,0
						c3.5,1.8,6.1,3.9,7.7,6.3l4.9-27.7c0.5-3,1.9-5.6,4.1-7.6c2.3-2,5.3-3.1,8.4-3.1h3.9c5.2,0,7.9,2.7,9.2,4.3
						c1.8,2.4,2.6,5.6,2.1,8.9c0,0.1,0,0.1,0,0.2l-3,17h4.1c4.4,0,8.3,0.8,11.9,2.3c3.7,1.7,6.9,4,9.2,6.9c2.3,2.9,4,6.4,4.8,10.3
						c0.8,3.7,0.9,7.7,0.2,11.9l-5.9,33.5c-0.5,3-1.9,5.6-4.1,7.6c-2.3,2-5.3,3.1-8.4,3.1H624c-5.2,0-7.9-2.7-9.1-4.3
						c-1.8-2.5-2.6-5.6-2.1-9c0-0.1,0-0.1,0-0.2l6-33.5c0.1-0.6,0.1-1.1,0.1-1.3c-0.2,0-0.6-0.1-1-0.1h-6.4l-6.7,37.6
						c-0.5,3-1.9,5.6-4.1,7.6c-2.3,2-5.3,3.1-8.4,3.1h-3.9c-5.2,0-7.9-2.7-9.2-4.3c-1.1-1.4-1.8-3.1-2.1-4.9
						c-1.5,1.7-3.2,3.2-5.1,4.5c-3,2.1-6.2,3.6-9.5,4.6C559.2,143.2,556,143.7,552.8,143.7z M462.2,115.5c2.9,0.9,4.7,2.6,5.6,3.8
						c0.6,0.8,1,1.6,1.4,2.5l4.9-27.9c-3.9-0.5-6.2-2.5-7.4-4L462.2,115.5z M537.1,100.9l-2.9,16.2l1.7-1.7c3.1-3.1,6.3-3.7,8.5-3.7
						c0.1,0,0.3,0,0.4,0c-1.9-1.5-3.5-3.3-4.9-5.2C538.7,104.8,537.7,102.9,537.1,100.9z M288.6,116.3c0.1,0,0.6,0.1,1.4,0.1
						c1.2,0,2.2-0.2,3.1-0.6c0.9-0.4,1.7-1,2.5-1.8c0.7-0.7,1.4-1.6,2-2.7c0-0.1,0.1-0.1,0.1-0.2c0.4-0.7,0.7-1.7,1-2.9L301,94h-1.6
						c-2.4,0-4,0.6-5.5,2c-1.7,1.6-2.7,3.3-3,5.3l-2.3,13.2c0,0.1,0,0.1,0,0.1C288.5,115.4,288.5,116,288.6,116.3z M348.4,115.2h4.4
						c1.2,0,2.3-0.4,3.4-1.3c1.2-1,1.7-1.9,2-3.3l2.6-14.6c0.1-0.9,0.1-1.4,0.1-1.6c0,0,0,0,0,0c-0.2-0.1-0.6-0.2-1.3-0.2h-7.2
						L348.4,115.2z M224,114.5h8.7c0.8,0,1.8-0.1,3-0.5c0.9-0.2,1.7-0.6,2.4-1.1c0.8-0.6,1.6-1.3,2.3-2.3c0.4-0.6,0.8-1.5,1-2.9
						c0,0,0,0,0,0c0.3-1.4,0.1-2,0.1-2c0-0.1-0.1-0.2-0.1-0.4c-0.2-0.7-0.4-0.9-0.4-0.9c-0.4-0.3-0.8-0.6-1.3-0.8
						c-0.8-0.3-1.5-0.4-2.2-0.4H226L224,114.5z M575.3,97.1c1.6,1.3,3.2,2.8,4.6,4.5c0.1,0.1,0.1,0.2,0.2,0.2
						c0.6,0.8,1.1,1.5,1.5,2.3l2.1-12l-1.8,1.5c-0.1,0.1-0.1,0.1-0.2,0.2c-1.6,1.3-3.5,2.6-6.2,3.2
						C575.5,97.1,575.4,97.1,575.3,97.1z M489.4,81.2c0,0.1,0.1,0.1,0.1,0.2c0,0,0,0,0,0c0.6-0.7,1.3-1.4,2.1-1.9
						c0,0-0.1-0.1-0.1-0.1c0,0,0,0,0,0C490.9,80.1,490.2,80.7,489.4,81.2z M231,75.4h3.5c0.4,0,1.4-0.1,2.6-0.5
						c1-0.3,1.9-0.8,2.8-1.4c0.7-0.5,1.5-1.3,2.1-2.3c0.5-0.7,0.9-1.8,1.1-3.2c0,0,0,0,0,0c0.2-1.2,0.1-1.8,0.1-2
						c-0.2-0.4-0.3-0.6-0.4-0.7c-0.4-0.3-0.7-0.5-1.1-0.6c-0.9-0.3-1.8-0.4-2.5-0.4h-6.3L231,75.4z"/>
				</g>
			</g>
		</g>
		<g>
			<path class="st0" d="M114.9,105.1h-5c-7.7,0-14-6.3-14-14.1c0-0.5,0-1,0.1-1.5c-0.3-0.3-0.6-0.6-0.9-0.9
				c-3.1,3.2-6.6,5.9-10.3,8.2c-3.1,1.9-7,1.5-9.6-1c-2.6-2.5-3.3-6.4-1.6-9.6c2.3-4.5,3.5-8.9,3.5-13.6c0-4.6-1.2-9.2-3.5-13.6
				c-1.7-3.2-1-7.1,1.6-9.6c2.6-2.5,6.6-2.8,9.7-0.9c0.4,0.2,0.8,0.5,1.2,0.7c2-5.4,7.1-9.2,13.1-9.2l16.6,0.1c0.2,0,0.3,0,0.5,0
				c0,0,0,0,0,0v0c0.3,0,0.7,0,1,0.1c6.6,0.4,13.1,1.9,19.1,4.6c1.2-4.1,4.5-7.4,8.8-8.3c0.8-5.7,5.7-10.1,11.6-10.1
				c6.5,0,11.8,5.3,11.8,11.8c0,4.1-2.1,7.7-5.3,9.8c3.2,2.1,5.3,5.7,5.3,9.8c0,4.4-2.4,8.2-6,10.2c0.1,0.3,0.3,0.5,0.4,0.8
				c1.4,2.5,1.4,5.5,0,7.9c-9.9,17.3-28.1,28.1-47.7,28.4C115.1,105.1,115,105.1,114.9,105.1z M114.3,89.1L114.3,89.1
				c8,0,15.7-2.5,22.2-6.9c-3.6-2.2-6-6.2-6-10.7c0-3.8,1.7-7.2,4.4-9.5c-6.1-3.8-13.2-5.9-20.6-6c-0.2,0-0.4,0-0.6,0
				c-1.1,0-2.4,0-3.9,0c0.3,0.4,0.5,0.9,0.7,1.4c1.2,3.1,0.4,6.6-2.1,8.8c-2.3,2.1-4.3,4.2-5.9,6.5c2.2,3,4.8,5.7,7.8,8
				c1.7,1.4,2.8,3.4,3,5.6c0.1,0.9,0,1.9-0.3,2.8H114.3z M142.6,68.2c-1.7,0.2-3,1.7-3,3.5c0,1.9,1.6,3.5,3.5,3.5
				c0.8,0,1.5-0.3,2.1-0.7c0.4-0.5,0.8-1,1.2-1.5c0-0.1,0.1-0.2,0.1-0.3C145.2,71,143.9,69.5,142.6,68.2z M154.5,57.5
				c1.3,1.3,2.5,2.8,3.7,4.2c1.6-0.6,2.8-2.2,2.8-4c0-1.9-1.3-3.5-3.1-4.1C157,55.2,155.9,56.5,154.5,57.5z M143.4,48.5
				c1.3,0.8,2.5,1.6,3.7,2.5c0.8-1.2,1.9-2.2,3.1-3.1c-1.6-1-2.9-2.4-3.8-4.1c-1.8,0.5-3.1,2.1-3.1,4.1
				C143.4,48.1,143.4,48.3,143.4,48.5z M152.6,37.3c2.2,1,4.1,2.8,5.3,4.9c1.7-0.5,3.1-2.2,3.1-4.1c0-2.3-1.9-4.2-4.2-4.2
				C154.7,33.9,153,35.4,152.6,37.3z"/>
		</g>
	</g>
</g>
<g id="Layer_1">
	<g id="Layer_2">
		<path class="st1" d="M529,68c-3.6,0-6.4-2.8-6.4-6.4s2.8-6.4,6.4-6.4s6.4,2.8,6.4,6.4C535.5,65,532.6,68,529,68z M120.7,120.9
			c-30.4,0-55.1-24.7-55.1-55.2c0-15.4,6.3-29.5,16.6-39.5c-1.2-1-1.9-2.5-1.9-4.1c0-2.9,2.4-5.3,5.3-5.3h70.1
			c2.9,0,5.3,2.4,5.3,5.3c0,1.7-0.7,3.1-1.9,4.1c10.3,10,16.6,24,16.6,39.5C175.7,96.3,151.1,121,120.7,120.9z"/>
	</g>
	<g id="Layer_1_1_">
		<g>
			<g>
				<path class="st2" d="M166.5,111.3c-0.1,0.1-0.1,0.2-0.2,0.3l-0.1,0.1c-25.3,25.3-66.4,25.3-91.7,0s-25.3-66.5,0-91.9
					c0.1-0.1,0.1-0.1,0.2-0.2l0.1-0.1c2.1-2.1,2.1-5.4,0-7.5s-5.4-2.1-7.5,0l-0.1,0.1l0,0c-0.1,0.1-0.2,0.1-0.2,0.2
					c-29.5,29.5-29.5,77.3,0,106.8c12.3,12.3,27.8,19.5,43.8,21.5c-7.2,2.3-13.1,7.2-16.9,13.6h-1.1c-2.9,0-5.3,2.4-5.3,5.2
					c0,2.9,2.4,5.2,5.3,5.2h55c2.9,0,5.3-2.4,5.3-5.2c0-2.9-2.4-5.2-5.3-5.2h-1.1c-3.8-6.3-9.7-11.2-16.9-13.5
					c16-2,31.5-9.2,43.8-21.5c0.1-0.1,0.1-0.2,0.2-0.2l0,0l0.1-0.1c2.1-2.1,2.1-5.4,0-7.5C171.9,109.2,168.5,109.2,166.5,111.3z
					 M259.1,51.6c-1.9-2.3-4.3-4-7.3-5.3c-2.9-1.3-6.1-1.9-9.6-1.9h-22.4c-1.2,0-2.3,0.4-3.1,1.1c-0.8,0.7-1.4,1.7-1.6,2.9l-14.6,82
					c-0.2,1.2,0,2.2,0.6,2.9c0.6,0.7,1.5,1.1,2.8,1.1h27.7c3.5,0,7-0.6,10.3-1.9c3.3-1.3,6.4-3,9.1-5.3c2.8-2.3,5-4.9,7-8
					c1.9-3,3.2-6.3,3.9-10c0.7-4.3,0.5-8.2-0.9-11.6c-1.4-3.4-3.7-6.4-6.9-9.2c-0.8-0.8-0.7-1.7,0.2-2.5c2.4-2.3,4.5-4.8,6.1-7.5
					c1.7-2.8,2.8-5.7,3.3-8.9c0.6-3.5,0.6-6.8-0.3-9.9C262.4,56.5,261.1,53.8,259.1,51.6z M249.2,109.2c-0.5,2.4-1.2,4.4-2.4,6.1
					c-1.2,1.7-2.6,3-4.1,4.1c-1.6,1.1-3.2,1.8-5,2.3s-3.4,0.7-5,0.7h-16.9c-0.9,0-1.3-0.5-1.1-1.3l4.3-24.5c0.2-0.9,0.6-1.3,1.6-1.3
					h16.9c1.6,0,3.1,0.3,4.8,0.8c1.6,0.6,2.9,1.4,4.1,2.5c1.2,1.1,2,2.6,2.6,4.3C249.6,104.8,249.7,106.9,249.2,109.2z M251,69.5
					c-0.5,2.4-1.2,4.5-2.4,6.2c-1.2,1.7-2.6,3.2-4.1,4.3c-1.6,1.1-3.2,1.9-5,2.5s-3.5,0.8-5,0.8h-11.7c-0.9,0-1.3-0.5-1.1-1.3
					l4.3-24.5c0.2-0.9,0.6-1.3,1.6-1.3h11.7c1.6,0,3.2,0.3,4.8,0.7c1.6,0.5,2.9,1.3,4.1,2.3c1.2,1.1,2,2.4,2.7,4.1
					C251.3,65.1,251.4,67.1,251,69.5z M320.4,74.8h-19.6c-3.7,0-7.2,0.6-10.6,2c-3.3,1.3-6.3,3.1-8.9,5.3c-2.7,2.3-4.9,5-6.6,8
					c-1.7,3.1-2.9,6.3-3.6,9.8l-2.1,11.7c-0.6,3.5-0.6,6.8-0.2,9.7c0.6,2.9,1.6,5.5,3,7.6c1.5,2.1,3.4,3.8,5.7,4.9
					c2.4,1.1,5,1.7,8.2,1.7c3.4,0,6.4-0.6,9.1-1.6c2.6-1.1,4.7-2.4,6.2-4.1c0.5-0.5,0.8-0.6,1.2-0.5c0.4,0.1,0.6,0.5,0.5,1
					c-0.2,1,0,1.8,0.6,2.7c0.6,0.8,1.5,1.2,2.7,1.2h3.9c1.2,0,2.3-0.4,3.1-1.1c0.8-0.7,1.4-1.7,1.6-2.9l9.2-51.6
					c0.2-1.2,0-2.2-0.6-2.9C322.6,75.2,321.7,74.8,320.4,74.8z M310.3,87.4l-3.9,22.4c-0.4,1.8-0.9,3.7-1.8,5.3
					c-0.9,1.7-2,3.3-3.4,4.7s-3,2.6-4.9,3.4c-1.8,0.8-3.9,1.3-6.3,1.3c-3.5,0-6.1-1.1-7.7-3.2c-1.6-2.1-2.1-4.9-1.5-8.2l2.3-13.1
					c0.6-3.8,2.5-7.1,5.4-9.8c2.9-2.8,6.5-4.1,10.9-4.1h9.9C310.2,86,310.4,86.5,310.3,87.4z M376.8,81.3c-1.7-2-3.8-3.6-6.3-4.7
					s-5.5-1.7-8.7-1.7h-13c-0.9,0-1.3-0.5-1.1-1.3l4.5-25.1c0.2-1.2,0-2.2-0.6-2.9c-0.6-0.7-1.5-1.1-2.8-1.1h-3.9
					c-1.2,0-2.3,0.4-3.1,1.1c-0.8,0.7-1.4,1.7-1.6,2.9l-14.6,82c-0.2,1.2,0,2.2,0.6,2.9c0.6,0.7,1.5,1.1,2.8,1.1h21.8
					c3.4,0,6.7-0.6,9.7-1.7c3-1.1,5.8-2.8,8.2-4.7c2.4-2,4.4-4.4,6-7.2c1.6-2.8,2.7-5.8,3.2-8.9l2.6-14.6c0.6-3.2,0.6-6.1-0.1-8.9
					C379.5,85.6,378.4,83.2,376.8,81.3z M368.5,97.3l-2.6,14.6c-0.6,3.4-2.2,6.1-4.8,8.2c-2.6,2.1-5.4,3.1-8.4,3.1h-12.6
					c-0.9,0-1.3-0.5-1.1-1.3l6.1-34.4c0.2-0.9,0.6-1.3,1.6-1.3h12.6c3.3,0,5.9,1,7.5,3.1C368.5,91.3,369.1,93.9,368.5,97.3z
					 M432,80.3c-1.7-2.1-3.9-3.8-6.6-5c-2.7-1.2-5.9-1.8-9.5-1.8s-7.1,0.6-10.2,1.8c-3.1,1.2-5.8,2.9-8.2,5
					c-2.4,2.1-4.3,4.6-5.8,7.4c-1.6,2.8-2.6,5.9-3.1,9.1l-2.8,15.6c-0.6,3.2-0.6,6.1,0.1,9c0.6,2.8,1.8,5.3,3.6,7.4
					c1.7,2.1,3.9,3.8,6.7,5s6,1.7,9.6,1.7c4.8,0,9-0.9,12.8-2.8c3.8-1.8,6.7-3.9,8.9-6.1c0.8-0.9,1.4-1.8,1.7-2.8
					c0.2-1,0-1.8-0.6-2.7l-2.1-2.2c-0.6-0.8-1.5-1.2-2.4-1.3c-0.9,0-2,0.5-3.1,1.4c-1.2,1.1-2.8,2.2-4.9,3.4c-2,1.2-4.8,1.7-8.1,1.7
					c-4.2,0-7.2-1.1-8.7-3.4c-1.6-2.3-2-5.1-1.5-8.4l0.5-2.4c0.2-0.9,0.6-1.3,1.6-1.3h29.7c1.2,0,2.3-0.4,3.1-1.1
					c0.8-0.7,1.4-1.7,1.6-2.9l1.4-8c0.6-3.2,0.6-6.2,0-9.1C434.9,85,433.8,82.5,432,80.3z M423.6,97l-0.1,0.6
					c-0.2,0.9-0.6,1.3-1.6,1.3h-20.5c-0.9,0-1.3-0.5-1.1-1.3l0.1-0.6c0.6-3.4,1.9-6.2,4-8.6c2.1-2.4,5.2-3.6,9.4-3.6
					c4.2,0,7.1,1.2,8.4,3.6C423.8,90.7,424.2,93.6,423.6,97z M462.8,44.4h-3.9c-1.2,0-2.3,0.4-3.1,1.1c-0.8,0.7-1.4,1.7-1.6,2.9
					l-12.2,68.8c-0.9,5.3-0.5,9.5,1.6,12.6c1.9,3.1,5.8,4.6,11.4,4.6h1.8c1.2,0,2.3-0.4,3.1-1.1s1.4-1.7,1.6-2.9l0.6-3.3
					c0.2-1.2,0-2.2-0.6-2.9c-0.6-0.7-1.5-1.1-2.8-1.1h-1.3c-1.5,0-2.6-0.5-3.2-1.3c-0.6-0.8-0.8-1.9-0.6-3.4l12.5-70.1
					c0.2-1.2,0-2.2-0.6-2.9C465,44.7,464.1,44.4,462.8,44.4z M512.6,78.8c0.2-1.2,0-2.2-0.6-2.9c-0.6-0.7-1.5-1.1-2.8-1.1h-10.6
					c-0.9,0-1.3-0.5-1.1-1.3l1.3-6.6c0.6-3.4,1.9-6.1,3.9-8.2c2-2,4.7-3,8-3h2c1.2,0,2.3-0.4,3.1-1.1c0.8-0.7,1.4-1.7,1.6-2.9
					l0.6-3.3c0.2-1.2,0-2.2-0.6-2.9c-0.6-0.7-1.5-1.1-2.8-1.1h-2.5c-3.2,0-6.3,0.6-9.2,1.7c-2.8,1.2-5.3,2.8-7.5,4.7
					c-2.2,2-4,4.4-5.5,7.2c-1.5,2.8-2.5,5.8-3,8.9l-1.2,6.6c-0.2,0.9-0.6,1.3-1.6,1.3h-6.6c-1.2,0-2.3,0.4-3.1,1.1
					c-0.8,0.7-1.4,1.7-1.6,2.9l-0.6,3.3c-0.2,1.2,0,2.2,0.6,2.9c0.6,0.7,1.5,1.1,2.8,1.1h6.6c0.9,0,1.3,0.5,1.1,1.3l-7.6,43
					c-0.2,1.2,0,2.2,0.6,2.9c0.6,0.7,1.5,1.1,2.8,1.1h3.9c1.2,0,2.3-0.4,3.1-1.1s1.4-1.7,1.6-2.9l7.6-43c0.2-0.9,0.6-1.3,1.6-1.3
					h10.6c1.2,0,2.3-0.4,3.1-1.1c0.8-0.7,1.4-1.7,1.6-2.9L512.6,78.8z M529.6,74.8h-3.9c-1.2,0-2.3,0.4-3.1,1.1
					c-0.8,0.7-1.4,1.7-1.6,2.9l-9.2,51.6c-0.2,1.2,0,2.2,0.6,2.9c0.6,0.7,1.5,1.1,2.8,1.1h3.9c1.2,0,2.3-0.4,3.1-1.1
					s1.4-1.7,1.6-2.9l9.2-51.6c0.2-1.2,0-2.2-0.6-2.9C531.7,75.2,530.8,74.8,529.6,74.8z M575.4,75.5c-2.5-1.3-5.5-2-9-2
					c-2.9,0-5.6,0.5-8.1,1.4c-2.5,0.9-4.7,2.2-6.6,3.8c-1.9,1.6-3.5,3.4-4.8,5.6c-1.3,2.1-2.1,4.4-2.5,6.8c-0.5,2.4-0.5,4.5-0.1,6.2
					s1.1,3.4,2.1,4.9c1,1.5,2.3,2.8,3.9,4c1.7,1.2,3.5,2.4,5.7,3.6c3.4,1.8,5.6,3.4,6.8,4.6c1.1,1.2,1.6,2.7,1.3,4.4
					s-1.4,3.2-3.1,4.2c-1.7,1.1-3.9,1.6-6.2,1.6c-1.9,0-3.5-0.4-4.8-1c-1.3-0.6-2.3-1.4-3.1-2.2c-1.7-1.8-3.6-1.9-5.4-0.1l-2.9,2.9
					c-0.9,0.8-1.5,1.7-1.7,2.8c-0.2,1.1,0.1,2,0.6,2.8c1.3,1.8,3.1,3.3,5.5,4.4c2.5,1.1,5.7,1.7,9.7,1.7c2.5,0,5-0.4,7.5-1.1
					c2.6-0.7,5-1.9,7.1-3.4c2.2-1.6,4-3.4,5.6-5.7c1.6-2.3,2.6-4.9,3.1-7.7c0.5-2.4,0.4-4.5-0.1-6.2c-0.5-1.8-1.3-3.4-2.4-4.9
					c-1.2-1.5-2.6-2.8-4.4-4c-1.7-1.2-3.8-2.4-6.1-3.4c-2.4-1.1-4.2-2.3-5.7-3.6c-1.5-1.2-2-2.8-1.7-4.5c0.4-1.8,1.2-3.4,2.6-4.5
					c1.4-1.1,3.4-1.7,5.9-1.7c2.9,0,5.3,1.1,7.3,3.3c0.7,0.9,1.6,1.2,2.4,1c0.9-0.2,1.7-0.7,2.8-1.6l2.8-2.5
					c0.9-0.8,1.5-1.7,1.6-2.8c0.1-1-0.1-1.9-0.6-2.8C579.6,78.1,577.9,76.8,575.4,75.5z M638.5,88c-0.6-2.7-1.7-5-3.2-7
					s-3.7-3.5-6.1-4.6c-2.6-1.1-5.4-1.7-8.7-1.7h-12.3c-0.9,0-1.3-0.5-1.1-1.3l4.5-25.1c0.2-1.2,0-2.2-0.6-2.9
					c-0.6-0.7-1.5-1.1-2.8-1.1h-3.9c-1.2,0-2.3,0.4-3.1,1.1c-0.8,0.7-1.4,1.7-1.6,2.9l-14.6,82c-0.2,1.2,0,2.2,0.6,2.9
					c0.6,0.7,1.5,1.1,2.8,1.1h3.9c1.2,0,2.3-0.4,3.1-1.1c0.8-0.7,1.4-1.7,1.6-2.9l7.6-43c0.2-0.9,0.6-1.3,1.6-1.3h11.7
					c3.3,0,5.8,0.9,7.3,2.8c1.6,1.9,2,4.5,1.5,7.9l-6,33.6c-0.2,1.2,0,2.2,0.6,2.9c0.6,0.7,1.5,1.1,2.8,1.1h3.9
					c1.2,0,2.3-0.4,3.1-1.1s1.4-1.7,1.6-2.9l6-33.6C639.2,93.6,639.2,90.7,638.5,88z"/>
			</g>
		</g>
		<path class="st2" d="M156.7,41.9c-2.1,0-3.8-1.7-3.8-3.8s1.7-3.8,3.8-3.8s3.8,1.7,3.8,3.8S158.8,41.9,156.7,41.9z M147.6,51.7
			c-2.1,0-3.8-1.7-3.8-3.8c0-2.1,1.7-3.8,3.8-3.8c2.1,0,3.8,1.7,3.8,3.8C151.4,50.1,149.6,51.7,147.6,51.7z M156,72.7
			c-8.4,14.6-23.9,24.4-41.6,24.4c-1.3,0-4.5,0-4.5,0c-3.3,0-6-2.8-6-6.1c0-1.6,0.6-2.9,1.5-3.9c-3.9-3.1-7.4-6.8-10.3-10.9
			c-3.9,5.6-8.8,10.4-14.5,13.9c2.8-5.4,4.4-11.2,4.4-17.3c0-6.1-1.6-11.9-4.4-17.3c5.8,3.6,10.7,8.4,14.6,13.9
			c2.2-3.3,4.9-6.2,7.8-8.9h-3.9c-3.3,0-6-2.8-6-6.1c0-3.4,2.7-6.1,6-6.1c0,0,24.3,0.1,15.3,0.1C132.1,48.2,147.6,58,156,72.7z
			 M143,76.1c2.5,0,4.5-2,4.5-4.5c0-2.5-2-4.5-4.5-4.5c-2.5,0-4.5,2-4.5,4.5C138.5,74.1,140.6,76.1,143,76.1z M114.3,97.1
			C114.3,97.1,114.4,97.1,114.3,97.1C115,97.1,115.2,97.1,114.3,97.1z M152.9,57.8c0-2.1,1.7-3.8,3.8-3.8s3.8,1.7,3.8,3.8
			s-1.7,3.8-3.8,3.8C154.6,61.5,152.9,59.9,152.9,57.8z"/>
	</g>
</g>
</svg>
