<?xml version="1.0" encoding="utf-8"?>
<!-- Generator: Adobe Illustrator 19.1.0, SVG Export Plug-In . SVG Version: 6.00 Build 0)  -->
<svg version="1.1" id="Layer_1" xmlns="http://www.w3.org/2000/svg" xmlns:xlink="http://www.w3.org/1999/xlink" x="0px" y="0px"
	 viewBox="0 0 678 176" style="enable-background:new 0 0 678 176;" xml:space="preserve">
<style type="text/css">
	.st0{fill:#65FFED;}
	.st1{fill:#153E50;}
</style>
<g id="Layer_2">
	<path class="st0" d="M545.8,66.2c-3.9,0-7-3.1-7-7s3.1-7,7-7s7,3.1,7,7C552.8,63,549.7,66.2,545.8,66.2z M100.9,123.9
		c-33.1,0-60-26.9-60-60.1c0-16.8,6.9-32.1,18.1-43c-1.3-1.1-2.1-2.7-2.1-4.5c0-3.2,2.6-5.8,5.8-5.8h76.4c3.2,0,5.8,2.6,5.8,5.8
		c0,1.8-0.8,3.4-2.1,4.5c11.2,10.9,18.1,26.1,18.1,43C160.8,97.1,134,124,100.9,123.9z"/>
</g>
<g id="Layer_1_1_">
	<g>
		<g>
			<path class="st1" d="M150.8,113.4c-0.1,0.1-0.1,0.2-0.2,0.3l-0.1,0.1c-27.6,27.6-72.3,27.6-99.9,0S23,41.3,50.6,13.7
				c0.1-0.1,0.1-0.1,0.2-0.2l0.1-0.1c2.3-2.3,2.3-5.9,0-8.2s-5.9-2.3-8.2,0l-0.1,0.1l0,0c-0.1,0.1-0.2,0.1-0.2,0.2
				c-32.1,32.1-32.1,84.2,0,116.4c13.4,13.4,30.3,21.2,47.7,23.4c-7.8,2.5-14.3,7.8-18.4,14.8h-1.2c-3.2,0-5.8,2.6-5.8,5.7
				c0,3.2,2.6,5.7,5.8,5.7h59.9c3.2,0,5.8-2.6,5.8-5.7c0-3.2-2.6-5.7-5.8-5.7h-1.2c-4.1-6.9-10.6-12.2-18.4-14.7
				c17.4-2.2,34.3-10,47.7-23.4c0.1-0.1,0.1-0.2,0.2-0.2l0,0l0.1-0.1c2.3-2.3,2.3-5.9,0-8.2C156.7,111.1,153,111.1,150.8,113.4z
				 M251.7,48.4c-2.1-2.5-4.7-4.4-7.9-5.8c-3.2-1.4-6.7-2.1-10.5-2.1h-24.4c-1.3,0-2.5,0.4-3.4,1.2s-1.5,1.8-1.7,3.2l-15.9,89.4
				c-0.2,1.3,0,2.4,0.6,3.2s1.6,1.2,3,1.2h30.2c3.8,0,7.6-0.7,11.2-2.1c3.6-1.4,7-3.3,9.9-5.8c3-2.5,5.5-5.3,7.6-8.7
				c2.1-3.3,3.5-6.9,4.2-10.9c0.8-4.7,0.5-8.9-1-12.6s-4-7-7.5-10c-0.9-0.9-0.8-1.8,0.2-2.7c2.6-2.5,4.9-5.2,6.6-8.2
				c1.8-3,3-6.2,3.6-9.7c0.7-3.8,0.6-7.4-0.3-10.8C255.3,53.7,253.8,50.8,251.7,48.4z M240.9,111.2c-0.5,2.6-1.3,4.8-2.6,6.6
				c-1.3,1.8-2.8,3.3-4.5,4.5s-3.5,2-5.4,2.5s-3.7,0.8-5.5,0.8h-18.4c-1,0-1.4-0.5-1.2-1.4l4.7-26.7c0.2-1,0.7-1.4,1.7-1.4h18.4
				c1.7,0,3.4,0.3,5.2,0.9c1.7,0.6,3.2,1.5,4.5,2.7s2.2,2.8,2.8,4.7C241.3,106.3,241.4,108.6,240.9,111.2z M242.8,67.9
				c-0.5,2.6-1.3,4.9-2.6,6.8s-2.8,3.5-4.5,4.7s-3.5,2.1-5.4,2.7s-3.8,0.9-5.5,0.9h-12.7c-1,0-1.4-0.5-1.2-1.4l4.7-26.7
				c0.2-1,0.7-1.4,1.7-1.4H230c1.7,0,3.5,0.3,5.2,0.8s3.2,1.4,4.5,2.5c1.3,1.2,2.2,2.6,2.9,4.5C243.2,63.1,243.3,65.3,242.8,67.9z
				 M318.5,73.7h-21.4c-4,0-7.8,0.7-11.5,2.2c-3.6,1.4-6.9,3.4-9.7,5.8c-2.9,2.5-5.3,5.4-7.2,8.7c-1.9,3.4-3.2,6.9-3.9,10.7
				l-2.3,12.8c-0.7,3.8-0.7,7.4-0.2,10.6c0.6,3.2,1.7,6,3.3,8.3c1.6,2.3,3.7,4.1,6.2,5.3c2.6,1.2,5.5,1.9,8.9,1.9
				c3.7,0,7-0.6,9.9-1.7c2.8-1.2,5.1-2.6,6.8-4.5c0.5-0.5,0.9-0.6,1.3-0.5s0.6,0.5,0.5,1.1c-0.2,1.1,0,2,0.6,2.9s1.6,1.3,2.9,1.3
				h4.3c1.3,0,2.5-0.4,3.4-1.2s1.5-1.8,1.7-3.2l10-56.2c0.2-1.3,0-2.4-0.6-3.2C320.9,74.1,319.9,73.7,318.5,73.7z M307.5,87.4
				l-4.3,24.4c-0.4,2-1,4-2,5.8c-1,1.9-2.2,3.6-3.7,5.1s-3.3,2.8-5.3,3.7c-2,0.9-4.3,1.4-6.9,1.4c-3.8,0-6.6-1.2-8.4-3.5
				c-1.7-2.3-2.3-5.3-1.6-8.9l2.5-14.3c0.7-4.1,2.7-7.7,5.9-10.7c3.2-3,7.1-4.5,11.9-4.5h10.8C307.3,85.9,307.6,86.4,307.5,87.4z
				 M379.9,80.7c-1.8-2.2-4.1-3.9-6.9-5.1s-6-1.9-9.5-1.9h-14.2c-1,0-1.4-0.5-1.2-1.4l4.9-27.4c0.2-1.3,0-2.4-0.6-3.2
				s-1.6-1.2-3-1.2h-4.3c-1.3,0-2.5,0.4-3.4,1.2s-1.5,1.8-1.7,3.2l-15.9,89.4c-0.2,1.3,0,2.4,0.6,3.2s1.6,1.2,3,1.2h23.7
				c3.7,0,7.3-0.6,10.6-1.9c3.3-1.2,6.3-3,8.9-5.1c2.6-2.2,4.8-4.8,6.5-7.8s2.9-6.3,3.5-9.7l2.8-15.9c0.6-3.5,0.6-6.7-0.1-9.7
				C382.9,85.4,381.7,82.8,379.9,80.7z M370.9,98.2l-2.8,15.9c-0.6,3.7-2.4,6.6-5.2,8.9c-2.8,2.3-5.9,3.4-9.2,3.4H340
				c-1,0-1.4-0.5-1.2-1.4l6.7-37.5c0.2-1,0.7-1.4,1.7-1.4h13.7c3.6,0,6.4,1.1,8.2,3.4C370.9,91.6,371.5,94.5,370.9,98.2z
				 M440.1,79.7c-1.8-2.3-4.2-4.1-7.2-5.5c-2.9-1.3-6.4-2-10.4-2s-7.7,0.7-11.1,2s-6.3,3.2-8.9,5.5s-4.7,5-6.3,8.1
				c-1.7,3.1-2.8,6.4-3.4,9.9l-3,17c-0.6,3.5-0.6,6.7,0.1,9.8c0.7,3.1,2,5.8,3.9,8.1s4.3,4.1,7.3,5.4c3,1.3,6.5,1.9,10.5,1.9
				c5.2,0,9.8-1,13.9-3s7.3-4.2,9.7-6.6c0.9-1,1.5-2,1.8-3c0.2-1.1,0-2-0.7-2.9L434,122c-0.7-0.9-1.6-1.3-2.6-1.4
				c-1,0-2.2,0.5-3.4,1.5c-1.3,1.2-3,2.4-5.3,3.7c-2.2,1.3-5.2,1.9-8.8,1.9c-4.6,0-7.8-1.2-9.5-3.7s-2.2-5.6-1.6-9.2l0.5-2.6
				c0.2-1,0.7-1.4,1.7-1.4h32.4c1.3,0,2.5-0.4,3.4-1.2c0.9-0.8,1.5-1.8,1.7-3.2l1.5-8.7c0.6-3.5,0.6-6.8,0-9.9
				C443.2,84.8,442,82,440.1,79.7z M430.9,97.8l-0.1,0.7c-0.2,1-0.7,1.4-1.7,1.4h-22.3c-1,0-1.4-0.5-1.2-1.4l0.1-0.7
				c0.6-3.7,2.1-6.8,4.4-9.4s5.7-3.9,10.2-3.9c4.6,0,7.7,1.3,9.2,3.9C431.1,91,431.6,94.1,430.9,97.8z M473.6,40.5h-4.3
				c-1.3,0-2.5,0.4-3.4,1.2s-1.5,1.8-1.7,3.2l-13.3,75c-1,5.8-0.5,10.3,1.7,13.7c2.1,3.4,6.3,5,12.4,5h2c1.3,0,2.5-0.4,3.4-1.2
				s1.5-1.8,1.7-3.2l0.6-3.6c0.2-1.3,0-2.4-0.6-3.2s-1.6-1.2-3-1.2h-1.4c-1.6,0-2.8-0.5-3.5-1.4s-0.9-2.1-0.6-3.7l13.6-76.4
				c0.2-1.3,0-2.4-0.6-3.2C476,40.9,475,40.5,473.6,40.5z M527.9,78c0.2-1.3,0-2.4-0.6-3.2c-0.6-0.8-1.6-1.2-3-1.2h-11.5
				c-1,0-1.4-0.5-1.2-1.4L513,65c0.7-3.7,2.1-6.7,4.2-8.9c2.2-2.2,5.1-3.3,8.7-3.3h2.2c1.3,0,2.5-0.4,3.4-1.2s1.5-1.8,1.7-3.2
				l0.6-3.6c0.2-1.3,0-2.4-0.6-3.2s-1.6-1.2-3-1.2h-2.7c-3.5,0-6.9,0.6-10,1.9c-3.1,1.3-5.8,3-8.2,5.1c-2.4,2.2-4.4,4.8-6,7.8
				s-2.7,6.3-3.3,9.7l-1.3,7.2c-0.2,1-0.7,1.4-1.7,1.4h-7.2c-1.3,0-2.5,0.4-3.4,1.2c-0.9,0.8-1.5,1.8-1.7,3.2l-0.6,3.6
				c-0.2,1.3,0,2.4,0.6,3.2c0.6,0.8,1.6,1.2,3,1.2h7.2c1,0,1.4,0.5,1.2,1.4l-8.3,46.9c-0.2,1.3,0,2.4,0.6,3.2s1.6,1.2,3,1.2h4.3
				c1.3,0,2.5-0.4,3.4-1.2s1.5-1.8,1.7-3.2l8.3-46.9c0.2-1,0.7-1.4,1.7-1.4h11.5c1.3,0,2.5-0.4,3.4-1.2c0.9-0.8,1.5-1.8,1.7-3.2
				L527.9,78z M546.4,73.7h-4.3c-1.3,0-2.5,0.4-3.4,1.2c-0.9,0.8-1.5,1.8-1.7,3.2l-10,56.2c-0.2,1.3,0,2.4,0.6,3.2s1.6,1.2,3,1.2
				h4.3c1.3,0,2.5-0.4,3.4-1.2s1.5-1.8,1.7-3.2l10-56.2c0.2-1.3,0-2.4-0.6-3.2C548.7,74.1,547.7,73.7,546.4,73.7z M596.3,74.4
				c-2.7-1.4-6-2.2-9.8-2.2c-3.2,0-6.1,0.5-8.8,1.5s-5.1,2.4-7.2,4.1c-2.1,1.7-3.8,3.7-5.2,6.1c-1.4,2.3-2.3,4.8-2.7,7.4
				c-0.5,2.6-0.5,4.9-0.1,6.8s1.2,3.7,2.3,5.3c1.1,1.6,2.5,3.1,4.3,4.4s3.8,2.6,6.2,3.9c3.7,2,6.1,3.7,7.4,5
				c1.2,1.3,1.7,2.9,1.4,4.8s-1.5,3.5-3.4,4.6c-1.9,1.2-4.2,1.7-6.8,1.7c-2.1,0-3.8-0.4-5.2-1.1s-2.5-1.5-3.4-2.4
				c-1.9-2-3.9-2.1-5.9-0.1l-3.2,3.2c-1,0.9-1.6,1.9-1.8,3c-0.2,1.2,0.1,2.2,0.7,3c1.4,2,3.4,3.6,6,4.8c2.7,1.2,6.2,1.8,10.6,1.8
				c2.7,0,5.4-0.4,8.2-1.2s5.4-2.1,7.7-3.7c2.4-1.7,4.4-3.7,6.1-6.2c1.7-2.5,2.8-5.3,3.4-8.4c0.5-2.6,0.4-4.9-0.1-6.8
				c-0.5-2-1.4-3.7-2.6-5.3c-1.3-1.6-2.8-3.1-4.8-4.4c-1.9-1.3-4.1-2.6-6.6-3.7c-2.6-1.2-4.6-2.5-6.2-3.9c-1.6-1.3-2.2-3-1.9-4.9
				c0.4-2,1.3-3.7,2.8-4.9c1.5-1.2,3.7-1.9,6.4-1.9c3.2,0,5.8,1.2,8,3.6c0.8,1,1.7,1.3,2.6,1.1c1-0.2,1.9-0.8,3-1.7l3.1-2.7
				c1-0.9,1.6-1.8,1.7-3c0.1-1.1-0.1-2.1-0.7-3.1C600.9,77.3,599,75.8,596.3,74.4z M665.1,88c-0.6-2.9-1.8-5.5-3.5-7.6s-4-3.8-6.7-5
				c-2.8-1.2-5.9-1.8-9.5-1.8H632c-1,0-1.4-0.5-1.2-1.4l4.9-27.4c0.2-1.3,0-2.4-0.6-3.2s-1.6-1.2-3-1.2h-4.3c-1.3,0-2.5,0.4-3.4,1.2
				s-1.5,1.8-1.7,3.2l-15.9,89.4c-0.2,1.3,0,2.4,0.6,3.2s1.6,1.2,3,1.2h4.3c1.3,0,2.5-0.4,3.4-1.2s1.5-1.8,1.7-3.2l8.3-46.9
				c0.2-1,0.7-1.4,1.7-1.4h12.8c3.6,0,6.3,1,8,3.1s2.2,4.9,1.6,8.6l-6.5,36.6c-0.2,1.3,0,2.4,0.6,3.2s1.6,1.2,3,1.2h4.3
				c1.3,0,2.5-0.4,3.4-1.2s1.5-1.8,1.7-3.2l6.5-36.6C665.8,94.2,665.8,91,665.1,88z"/>
		</g>
	</g>
	<path class="st1" d="M140.1,37.8c-2.3,0-4.1-1.8-4.1-4.1s1.8-4.1,4.1-4.1s4.1,1.8,4.1,4.1S142.4,37.8,140.1,37.8z M130.2,48.5
		c-2.3,0-4.1-1.8-4.1-4.1s1.8-4.1,4.1-4.1c2.3,0,4.1,1.8,4.1,4.1S132.4,48.5,130.2,48.5z M139.3,71.4C130.2,87.3,113.3,98,94,98
		c-1.4,0-4.9,0-4.9,0c-3.6,0-6.5-3-6.5-6.7c0-1.7,0.6-3.2,1.6-4.3c-4.3-3.4-8.1-7.4-11.2-11.9c-4.2,6.1-9.6,11.3-15.8,15.1
		C60.3,84.3,62,78,62,71.3c0-6.6-1.7-13-4.8-18.9c6.3,3.9,11.7,9.1,15.9,15.2c2.4-3.6,5.3-6.8,8.5-9.7h-4.3c-3.6,0-6.5-3-6.5-6.7
		s2.9-6.7,6.5-6.7c0,0,26.5,0.1,16.7,0.1C113.3,44.7,130.2,55.4,139.3,71.4z M125.2,75.1c2.7,0,4.9-2.2,4.9-4.9
		c0-2.7-2.2-4.9-4.9-4.9c-2.7,0-4.9,2.2-4.9,4.9C120.3,72.9,122.5,75.1,125.2,75.1z M93.9,98C93.9,98,94,98,93.9,98
		C94.6,98,94.9,98,93.9,98z M136,55.1c0-2.3,1.8-4.1,4.1-4.1s4.1,1.8,4.1,4.1s-1.8,4.1-4.1,4.1C137.8,59.2,136,57.4,136,55.1z"/>
</g>
</svg>
